<mxfile host="app.diagrams.net" modified="2023-04-14T02:09:57.021Z" agent="5.0 (Windows NT 10.0; Win64; x64) AppleWebKit/537.36 (KHTML, like Gecko) Chrome/112.0.0.0 Safari/537.36" etag="mxOzRyvSWqE1beJtoGEM" version="21.0.6" type="github">
  <diagram id="C5RBs43oDa-KdzZeNtuy" name="Page-1">
    <mxGraphModel dx="1193" dy="669" grid="1" gridSize="10" guides="1" tooltips="1" connect="1" arrows="1" fold="1" page="1" pageScale="1" pageWidth="827" pageHeight="1169" math="0" shadow="0">
      <root>
        <mxCell id="WIyWlLk6GJQsqaUBKTNV-0" />
        <mxCell id="WIyWlLk6GJQsqaUBKTNV-1" parent="WIyWlLk6GJQsqaUBKTNV-0" />
        <mxCell id="rhz4xA871w0091sBJmLh-1" style="edgeStyle=orthogonalEdgeStyle;rounded=0;orthogonalLoop=1;jettySize=auto;html=1;entryX=0.5;entryY=0;entryDx=0;entryDy=0;" edge="1" parent="WIyWlLk6GJQsqaUBKTNV-1" source="rhz4xA871w0091sBJmLh-0" target="rhz4xA871w0091sBJmLh-2">
          <mxGeometry relative="1" as="geometry">
            <mxPoint x="240" y="210" as="targetPoint" />
          </mxGeometry>
        </mxCell>
        <mxCell id="rhz4xA871w0091sBJmLh-4" style="edgeStyle=orthogonalEdgeStyle;rounded=0;orthogonalLoop=1;jettySize=auto;html=1;exitX=0.5;exitY=1;exitDx=0;exitDy=0;entryX=0.5;entryY=0;entryDx=0;entryDy=0;" edge="1" parent="WIyWlLk6GJQsqaUBKTNV-1" source="rhz4xA871w0091sBJmLh-0" target="rhz4xA871w0091sBJmLh-3">
          <mxGeometry relative="1" as="geometry" />
        </mxCell>
        <mxCell id="rhz4xA871w0091sBJmLh-0" value="塔防游戏案例" style="rounded=1;whiteSpace=wrap;html=1;" vertex="1" parent="WIyWlLk6GJQsqaUBKTNV-1">
          <mxGeometry x="354" y="100" width="120" height="60" as="geometry" />
        </mxCell>
        <mxCell id="rhz4xA871w0091sBJmLh-6" style="edgeStyle=orthogonalEdgeStyle;rounded=0;orthogonalLoop=1;jettySize=auto;html=1;exitX=0.5;exitY=1;exitDx=0;exitDy=0;entryX=0.5;entryY=0;entryDx=0;entryDy=0;" edge="1" parent="WIyWlLk6GJQsqaUBKTNV-1" source="rhz4xA871w0091sBJmLh-2" target="rhz4xA871w0091sBJmLh-5">
          <mxGeometry relative="1" as="geometry" />
        </mxCell>
        <mxCell id="rhz4xA871w0091sBJmLh-10" style="edgeStyle=orthogonalEdgeStyle;rounded=0;orthogonalLoop=1;jettySize=auto;html=1;exitX=0.5;exitY=1;exitDx=0;exitDy=0;entryX=0.5;entryY=0;entryDx=0;entryDy=0;" edge="1" parent="WIyWlLk6GJQsqaUBKTNV-1" source="rhz4xA871w0091sBJmLh-2" target="rhz4xA871w0091sBJmLh-9">
          <mxGeometry relative="1" as="geometry" />
        </mxCell>
        <mxCell id="rhz4xA871w0091sBJmLh-12" style="edgeStyle=orthogonalEdgeStyle;rounded=0;orthogonalLoop=1;jettySize=auto;html=1;exitX=0.5;exitY=1;exitDx=0;exitDy=0;entryX=0.5;entryY=0;entryDx=0;entryDy=0;" edge="1" parent="WIyWlLk6GJQsqaUBKTNV-1" source="rhz4xA871w0091sBJmLh-2" target="rhz4xA871w0091sBJmLh-11">
          <mxGeometry relative="1" as="geometry" />
        </mxCell>
        <mxCell id="rhz4xA871w0091sBJmLh-2" value="游戏玩法设计" style="rounded=1;whiteSpace=wrap;html=1;" vertex="1" parent="WIyWlLk6GJQsqaUBKTNV-1">
          <mxGeometry x="176" y="150" width="120" height="60" as="geometry" />
        </mxCell>
        <mxCell id="rhz4xA871w0091sBJmLh-14" style="edgeStyle=orthogonalEdgeStyle;rounded=0;orthogonalLoop=1;jettySize=auto;html=1;exitX=0.5;exitY=1;exitDx=0;exitDy=0;entryX=0.5;entryY=0;entryDx=0;entryDy=0;" edge="1" parent="WIyWlLk6GJQsqaUBKTNV-1" source="rhz4xA871w0091sBJmLh-3" target="rhz4xA871w0091sBJmLh-13">
          <mxGeometry relative="1" as="geometry" />
        </mxCell>
        <mxCell id="rhz4xA871w0091sBJmLh-16" style="edgeStyle=orthogonalEdgeStyle;rounded=0;orthogonalLoop=1;jettySize=auto;html=1;exitX=0.5;exitY=1;exitDx=0;exitDy=0;entryX=0.5;entryY=0;entryDx=0;entryDy=0;" edge="1" parent="WIyWlLk6GJQsqaUBKTNV-1" source="rhz4xA871w0091sBJmLh-3" target="rhz4xA871w0091sBJmLh-15">
          <mxGeometry relative="1" as="geometry" />
        </mxCell>
        <mxCell id="rhz4xA871w0091sBJmLh-18" style="edgeStyle=orthogonalEdgeStyle;rounded=0;orthogonalLoop=1;jettySize=auto;html=1;exitX=0.5;exitY=1;exitDx=0;exitDy=0;entryX=0.5;entryY=0;entryDx=0;entryDy=0;" edge="1" parent="WIyWlLk6GJQsqaUBKTNV-1" source="rhz4xA871w0091sBJmLh-3" target="rhz4xA871w0091sBJmLh-17">
          <mxGeometry relative="1" as="geometry" />
        </mxCell>
        <mxCell id="rhz4xA871w0091sBJmLh-20" style="edgeStyle=orthogonalEdgeStyle;rounded=0;orthogonalLoop=1;jettySize=auto;html=1;exitX=0.5;exitY=1;exitDx=0;exitDy=0;" edge="1" parent="WIyWlLk6GJQsqaUBKTNV-1" source="rhz4xA871w0091sBJmLh-3" target="rhz4xA871w0091sBJmLh-19">
          <mxGeometry relative="1" as="geometry" />
        </mxCell>
        <mxCell id="rhz4xA871w0091sBJmLh-3" value="游戏需求组件" style="rounded=1;whiteSpace=wrap;html=1;" vertex="1" parent="WIyWlLk6GJQsqaUBKTNV-1">
          <mxGeometry x="447" y="275" width="120" height="60" as="geometry" />
        </mxCell>
        <mxCell id="rhz4xA871w0091sBJmLh-8" style="edgeStyle=orthogonalEdgeStyle;rounded=0;orthogonalLoop=1;jettySize=auto;html=1;exitX=0.5;exitY=1;exitDx=0;exitDy=0;entryX=0.5;entryY=0;entryDx=0;entryDy=0;" edge="1" parent="WIyWlLk6GJQsqaUBKTNV-1" source="rhz4xA871w0091sBJmLh-5" target="rhz4xA871w0091sBJmLh-7">
          <mxGeometry relative="1" as="geometry" />
        </mxCell>
        <mxCell id="rhz4xA871w0091sBJmLh-5" value="核心机制：&lt;br&gt;1.循环出怪机制&lt;br&gt;2.怪物寻路机制&lt;br&gt;3.炮塔索敌机制" style="rounded=1;whiteSpace=wrap;html=1;" vertex="1" parent="WIyWlLk6GJQsqaUBKTNV-1">
          <mxGeometry x="50" y="275" width="120" height="65" as="geometry" />
        </mxCell>
        <mxCell id="rhz4xA871w0091sBJmLh-7" value="扩展机制：&lt;br&gt;1.怪物能力机制&lt;br&gt;2.炮塔能力机制&lt;br&gt;3.玩家能力机制" style="rounded=1;whiteSpace=wrap;html=1;" vertex="1" parent="WIyWlLk6GJQsqaUBKTNV-1">
          <mxGeometry x="50" y="370" width="120" height="60" as="geometry" />
        </mxCell>
        <mxCell id="rhz4xA871w0091sBJmLh-9" value="辅助机制：&lt;br&gt;1.炮塔升级机制&lt;br&gt;2.玩家升级机制&lt;br&gt;3.贸易系统机制" style="rounded=1;whiteSpace=wrap;html=1;" vertex="1" parent="WIyWlLk6GJQsqaUBKTNV-1">
          <mxGeometry x="176" y="275" width="120" height="65" as="geometry" />
        </mxCell>
        <mxCell id="rhz4xA871w0091sBJmLh-11" value="玩法设计思路：&lt;br&gt;1.怪物寻路路径&lt;br&gt;2.失败/死亡条件&lt;br&gt;3.是否具备多个关卡" style="rounded=1;whiteSpace=wrap;html=1;" vertex="1" parent="WIyWlLk6GJQsqaUBKTNV-1">
          <mxGeometry x="302" y="275" width="120" height="65" as="geometry" />
        </mxCell>
        <mxCell id="rhz4xA871w0091sBJmLh-13" value="怪物类：&lt;br&gt;本模块指所有怪物的父类，定义了所有怪物共同的属性与方法" style="rounded=1;whiteSpace=wrap;html=1;" vertex="1" parent="WIyWlLk6GJQsqaUBKTNV-1">
          <mxGeometry x="317" y="402.5" width="120" height="60" as="geometry" />
        </mxCell>
        <mxCell id="rhz4xA871w0091sBJmLh-15" value="炮塔类：&lt;br&gt;本模块指所有炮塔的父类，定义了所有炮塔共同的属性与方法" style="rounded=1;whiteSpace=wrap;html=1;" vertex="1" parent="WIyWlLk6GJQsqaUBKTNV-1">
          <mxGeometry x="447" y="402.5" width="120" height="60" as="geometry" />
        </mxCell>
        <mxCell id="rhz4xA871w0091sBJmLh-17" value="机制类：&lt;br&gt;本模块定义了除gamemode外，所需要的其他判定方法" style="rounded=1;whiteSpace=wrap;html=1;" vertex="1" parent="WIyWlLk6GJQsqaUBKTNV-1">
          <mxGeometry x="577" y="402.5" width="120" height="60" as="geometry" />
        </mxCell>
        <mxCell id="rhz4xA871w0091sBJmLh-19" value="基本资源：&lt;br&gt;包括所需要用到的所有模型，动画，特效，声音等资产" style="rounded=1;whiteSpace=wrap;html=1;" vertex="1" parent="WIyWlLk6GJQsqaUBKTNV-1">
          <mxGeometry x="707" y="403" width="120" height="60" as="geometry" />
        </mxCell>
        <mxCell id="rhz4xA871w0091sBJmLh-22" value="内容安排思路：&lt;br&gt;1.制作各项基类及基本资源，涉及简单的特效制作及动画资源使用&lt;br&gt;2.在基类的基础上分化衍生出各项子类，可让学员自行设计&lt;br&gt;3.地图设计及核心玩法设计，偏向于策划内容(可设计为固定模块，也可让学员自行设计)&lt;br&gt;4.游戏玩法类制作，定义整个游戏的运行逻辑&lt;br&gt;5.测试及扩展，根据能力完善整个案例&lt;br&gt;6.打包项目及实机部署测试，了解dlc内容的制作机制，并尝试以此方式扩展项目&lt;br&gt;7.学习简单网络相关知识，了解VaRest插件的使用方式，制作简单的网络互通功能" style="rounded=1;whiteSpace=wrap;html=1;" vertex="1" parent="WIyWlLk6GJQsqaUBKTNV-1">
          <mxGeometry x="600" y="40" width="190" height="265" as="geometry" />
        </mxCell>
      </root>
    </mxGraphModel>
  </diagram>
</mxfile>
